# xmcd
#
# Track frame offsets:
#	150
#	18634
#	38602
#	55527
#	75777
#	94902
#	111837
#	130872
#	147348
#	162322
#	180975
#	196272
#	211138
#	230108
#	248289
#	266654
#	282123
#	294307
#	315932
#	330680
#	345211
#
# Disc length: 4768 seconds
#
# Revision: 0
# Processed by: cddbd v1.5.2PL0 Copyright (c) Steve Scherf et al.
# Submitted via: SynApp - FreeCDDB Version: 2.5
#
DISCID=12129e15
DTITLE=Fancy - Unknown Album
DYEAR=1
DGENRE=1
TTITLE0=Fancy - Slice me nice
TTITLE1=Chris De Burgh - High On Emotion
TTITLE2=Goombay Dance Band - Aloha-oe
TTITLE3=Dschinghis Khan - Moskau
TTITLE4=Frank Farian - Rocky
TTITLE5=Silly - Bataillon d' Amour
TTITLE6=City - Flieg ich durch die Welt
TTITLE7=Hoffmann and Hofmann - Himbeereis zum Frühstück
TTITLE8=Harpo - Moviestar
TTITLE9=Smokie - Lay Back In The Arms Of Someon
TTITLE10=ABBA - S.O.S.
TTITLE11=Carl Douglas - Kung Fu fighting
TTITLE12=Woflgang Petry - Sommer In Der Stadt.
TTITLE13=Lobo - I'd Love You To Want You
TTITLE14=The Hollies - The Air That I Breathe
TTITLE15=Terry Jacks - Seasons In The Sun
TTITLE16=Kincade - Dreams Are Ten A Penny
TTITLE17=Uriah Hee - 29 Lady In Black
TTITLE18=Smokie - I'll Meet You At Midnight
TTITLE19=The Sweet - Blockbuster
TTITLE20=Hello - New York Groove
EXTD=
EXTT0=
EXTT1=
EXTT2=
EXTT3=
EXTT4=
EXTT5=
EXTT6=
EXTT7=
EXTT8=
EXTT9=
EXTT10=
EXTT11=
EXTT12=
EXTT13=
EXTT14=
EXTT15=
EXTT16=
EXTT17=
EXTT18=
EXTT19=
EXTT20=
PLAYORDER=
